# xmcd
#
# Track frame offsets: 
#        150
#        11836
#        36687
#        52586
#        64772
#        78008
#        98761
#        124100
#        135757
#        157597
#        170860
#        191345
#        205679
#        230497
#        246159
#        259431
#        272246
#        284229
#        296637
#        313811
#
# Disc length: 4436 seconds
#
# Revision: 2
# Processed by: cddbd v1.5.2PL0 Copyright (c) Steve Scherf et al.
# Submitted via: ExactAudioCopy v0.99pb5
#
DISCID=22115214
DTITLE=Various Artist - Verve Club
DYEAR=2010
DGENRE=Jazz
TTITLE0=Mark Murphy - Stolen Moments
TTITLE1=Horace Silver Quintet - Not Enough Mama
TTITLE2=Stan Getz - Wives And Lovers
TTITLE3=Bill Evans - The Caretakers Theme
TTITLE4=Yusef Lateef - Chang, Chang, Chang
TTITLE5=Dizzy Gillespie - Panamericana
TTITLE6=Cal Tjader - Samba Do Suenho
TTITLE7=Bebel Gilberto - Bim Bom
TTITLE8=Jimmy Smith - Who's Afraid Of Virginia Woolf?
TTITLE9=La Clave - Move Your Hands
TTITLE10=George Benson - Thunder Walk
TTITLE11=Willie Bobo - Roots
TTITLE12=Kai Winding - Cantaloupe Island
TTITLE13=Count Basie - Shanghaied
TTITLE14=Ella Fitzgerald - Like Young
TTITLE15=The Oscar Peterson Trio - Goodbye J.D.
TTITLE16=Anita O'Day - Senor Blues
TTITLE17=Wes Montgomery - Movin' Wes
TTITLE18=Jimmy Smith - Burning Spear
TTITLE19=Wynton Kelly Trio - South Seas
EXTD=YEAR: 2010
EXTT0=
EXTT1=
EXTT2=
EXTT3=
EXTT4=
EXTT5=
EXTT6=
EXTT7=
EXTT8=
EXTT9=
EXTT10=
EXTT11=
EXTT12=
EXTT13=
EXTT14=
EXTT15=
EXTT16=
EXTT17=
EXTT18=
EXTT19=
PLAYORDER=
